# xmcd
#
# Track frame offsets: 
#        150
#        10304
#        23147
#        33837
#        44592
#        54976
#        64566
#        75669
#        84375
#        93560
#        102642
#        111995
#        122149
#        132785
#        144801
#        153392
#        166396
#        176943
#        187701
#        202246
#
# Disc length: 2841 seconds
#
# Revision: 0
# Processed by: cddbd v1.5.2PL0 Copyright (c) Steve Scherf et al.
# Submitted via: ExactAudioCopy v1.3
#
DISCID=0b0b1714
DTITLE=Faron Young - The Best Of Faron Young (K-Tel)
DYEAR=1900
DGENRE=Country
TTITLE0=Hello Walls
TTITLE1=It's Four In The Morning
TTITLE2=I Miss You Already
TTITLE3=All Right
TTITLE4=If You Ain't Lovin'
TTITLE5=Goin' Steady
TTITLE6=Country Girl
TTITLE7=Alone With You
TTITLE8=Backtrack
TTITLE9=The Comeback
TTITLE10=I've Got Five Dollars And It's Saturday Night
TTITLE11=Live Fast, Love Hard, Die Young
TTITLE12=Riverboat
TTITLE13=Sweet Dreams
TTITLE14=That's The Way It's Gotta Be
TTITLE15=This Little Girl Of Mine
TTITLE16=Three Days
TTITLE17=Wine Me Up
TTITLE18=Your Time's Comin'
TTITLE19=The Yellow Bandana
EXTD=
EXTT0=
EXTT1=
EXTT2=
EXTT3=
EXTT4=
EXTT5=
EXTT6=
EXTT7=
EXTT8=
EXTT9=
EXTT10=
EXTT11=
EXTT12=
EXTT13=
EXTT14=
EXTT15=
EXTT16=
EXTT17=
EXTT18=
EXTT19=
PLAYORDER=
